<svg width="50" height="50" viewBox="0 0 50 50" fill="none" xmlns="http://www.w3.org/2000/svg">
  <rect width="50" height="50" rx="25" fill="#CC186E" fill-opacity="0.07" />
  <path
    d="M27.0156 33.2812C25.1406 33.2812 23.4531 32.9375 21.9531 32.25C20.4531 31.5417 19.2552 30.5 18.3594 29.125C17.4844 27.7292 17.0469 26.0208 17.0469 24C17.0469 22.6458 17.2865 21.3854 17.7656 20.2188C18.2448 19.0312 18.9427 18.0104 19.8594 17.1562C20.776 16.2812 21.8802 15.6042 23.1719 15.125C24.4635 14.625 25.9115 14.375 27.5156 14.375C28.4115 14.375 29.3385 14.4688 30.2969 14.6562C31.2552 14.8229 32.0885 15.0625 32.7969 15.375L33.0156 19.8125L31.4531 19.9375L30.4844 16.875C30.0885 16.625 29.5885 16.4375 28.9844 16.3125C28.401 16.1875 27.8177 16.125 27.2344 16.125C25.776 16.125 24.5781 16.4479 23.6406 17.0938C22.7031 17.7188 22.0052 18.5833 21.5469 19.6875C21.0885 20.7917 20.8594 22.0312 20.8594 23.4062C20.8594 25.1146 21.151 26.5729 21.7344 27.7812C22.3385 28.9896 23.1406 29.9062 24.1406 30.5312C25.1406 31.1562 26.2552 31.4688 27.4844 31.4688C28.0885 31.4688 28.6719 31.3958 29.2344 31.25C29.7969 31.0833 30.3073 30.8542 30.7656 30.5625L32.0469 27.6562L33.7031 27.8438L32.7969 31.8438C32.1302 32.2188 31.276 32.5521 30.2344 32.8438C29.2135 33.1354 28.1406 33.2812 27.0156 33.2812Z"
    fill="black" />
</svg>