<svg width="30" height="24" viewBox="0 0 30 24" fill="none" xmlns="http://www.w3.org/2000/svg">
  <path
    d="M3 23.7932C2.175 23.7932 1.4685 23.5113 0.880502 22.9473C0.292502 22.3834 -0.000997453 21.7063 2.54669e-06 20.916V3.65263C2.54669e-06 2.86139 0.294003 2.1838 0.882002 1.61986C1.47 1.05592 2.176 0.774434 3 0.775393H27C27.825 0.775393 28.5315 1.05736 29.1195 1.6213C29.7075 2.18524 30.001 2.86235 30 3.65263V20.916C30 21.7073 29.706 22.3848 29.118 22.9488C28.53 23.5127 27.824 23.7942 27 23.7932H3ZM15 13.7229L3 6.52986V20.916H27V6.52986L15 13.7229ZM15 10.8457L27 3.65263H3L15 10.8457ZM3 6.52986V3.65263V20.916V6.52986Z"
    fill="#CC186E" />
</svg>