<svg width="30" height="29" viewBox="0 0 30 29" fill="none" xmlns="http://www.w3.org/2000/svg">
  <path
    d="M8.7 0.849609H21.3C26.1 0.849609 30 4.4404 30 8.85983V20.4608C30 22.5853 29.0834 24.6227 27.4518 26.1249C25.8203 27.6271 23.6074 28.471 21.3 28.471H8.7C3.9 28.471 0 24.8803 0 20.4608V8.85983C0 6.73538 0.916605 4.69795 2.54817 3.19575C4.17974 1.69354 6.39262 0.849609 8.7 0.849609ZM8.4 3.61175C6.96783 3.61175 5.59432 4.13557 4.58162 5.06798C3.56893 6.00038 3 7.26499 3 8.58361V20.737C3 23.4854 5.415 25.7089 8.4 25.7089H21.6C23.0322 25.7089 24.4057 25.1851 25.4184 24.2527C26.4311 23.3203 27 22.0557 27 20.737V8.58361C27 5.83528 24.585 3.61175 21.6 3.61175H8.4ZM22.875 5.68336C23.3723 5.68336 23.8492 5.86524 24.2008 6.18899C24.5525 6.51274 24.75 6.95185 24.75 7.4097C24.75 7.86755 24.5525 8.30665 24.2008 8.63041C23.8492 8.95416 23.3723 9.13604 22.875 9.13604C22.3777 9.13604 21.9008 8.95416 21.5492 8.63041C21.1975 8.30665 21 7.86755 21 7.4097C21 6.95185 21.1975 6.51274 21.5492 6.18899C21.9008 5.86524 22.3777 5.68336 22.875 5.68336ZM15 7.75497C16.9891 7.75497 18.8968 8.48249 20.3033 9.7775C21.7098 11.0725 22.5 12.8289 22.5 14.6603C22.5 16.4917 21.7098 18.2481 20.3033 19.5432C18.8968 20.8382 16.9891 21.5657 15 21.5657C13.0109 21.5657 11.1032 20.8382 9.6967 19.5432C8.29018 18.2481 7.5 16.4917 7.5 14.6603C7.5 12.8289 8.29018 11.0725 9.6967 9.7775C11.1032 8.48249 13.0109 7.75497 15 7.75497ZM15 10.5171C13.8065 10.5171 12.6619 10.9536 11.818 11.7306C10.9741 12.5076 10.5 13.5615 10.5 14.6603C10.5 15.7592 10.9741 16.813 11.818 17.59C12.6619 18.367 13.8065 18.8035 15 18.8035C16.1935 18.8035 17.3381 18.367 18.182 17.59C19.0259 16.813 19.5 15.7592 19.5 14.6603C19.5 13.5615 19.0259 12.5076 18.182 11.7306C17.3381 10.9536 16.1935 10.5171 15 10.5171Z"
    fill="#CC186E" />
</svg>