<svg width="30" height="28" viewBox="0 0 30 28" fill="none" xmlns="http://www.w3.org/2000/svg">
  <path
    d="M25.6281 4.14985C24.246 2.87088 22.5998 1.85682 20.7854 1.16681C18.971 0.476808 17.0248 0.124672 15.0603 0.130942C6.82914 0.130942 0.120603 6.27669 0.120603 13.8173C0.120603 16.2342 0.81407 18.582 2.11055 20.6536L0 27.7523L7.91457 25.8464C10.1005 26.9375 12.5578 27.5175 15.0603 27.5175C23.2915 27.5175 30 21.3718 30 13.8311C30 10.1713 28.4472 6.73244 25.6281 4.14985ZM15.0603 25.1973C12.8291 25.1973 10.6432 24.6449 8.72864 23.6091L8.27638 23.3605L3.57286 24.493L4.82412 20.2945L4.52261 19.8664C3.28303 18.053 2.62483 15.9569 2.62312 13.8173C2.62312 7.54727 8.201 2.43732 15.0452 2.43732C18.3618 2.43732 21.4824 3.62504 23.8191 5.77951C24.9761 6.83459 25.893 8.08957 26.5167 9.47169C27.1403 10.8538 27.4583 12.3356 27.4523 13.8311C27.4824 20.1012 21.9045 25.1973 15.0603 25.1973ZM21.8744 16.6899C21.4975 16.5242 19.6583 15.6956 19.3266 15.5713C18.9799 15.4608 18.7387 15.4055 18.4824 15.737C18.2261 16.0823 17.5176 16.8557 17.3065 17.0766C17.0955 17.3114 16.8693 17.339 16.4925 17.1595C16.1156 16.9938 14.9095 16.6209 13.4925 15.4608C12.3769 14.5493 11.6382 13.4306 11.4121 13.0854C11.201 12.7401 11.3819 12.5605 11.5779 12.381C11.7437 12.2291 11.9548 11.9805 12.1357 11.7872C12.3166 11.5938 12.392 11.4419 12.5126 11.2209C12.6332 10.9861 12.5729 10.7928 12.4824 10.6271C12.392 10.4613 11.6382 8.77643 11.3367 8.08589C11.0352 7.42298 10.7186 7.50584 10.4925 7.49203H9.76884C9.51256 7.49203 9.1206 7.5749 8.77387 7.92016C8.44221 8.26543 7.47739 9.09407 7.47739 10.779C7.47739 12.4639 8.8191 14.0935 9 14.3145C9.1809 14.5493 11.6382 18.002 15.3769 19.4797C16.2663 19.8388 16.9598 20.0459 17.5025 20.1979C18.392 20.4603 19.206 20.4188 19.8543 20.336C20.5779 20.2393 22.0703 19.5073 22.3719 18.7063C22.6884 17.9053 22.6884 17.2286 22.5829 17.0766C22.4774 16.9247 22.2513 16.8557 21.8744 16.6899Z"
    fill="#CC186E" />
</svg>